<svg width="25" height="23" viewBox="0 0 25 23" fill="none" xmlns="http://www.w3.org/2000/svg">
<path opacity="0.4" d="M2.73986 19.964C-0.425468 16.7986 -0.440095 11.6642 2.70725 8.51687L10.6974 0.526732C11.1182 0.105934 11.8012 0.108719 12.2236 0.53108C12.6461 0.953582 12.6489 1.63661 12.2281 2.05741L4.23792 10.0475C1.93064 12.3548 1.94067 16.1208 4.26184 18.442C6.58301 20.7632 10.349 20.7732 12.6563 18.4659L21.027 10.0952C22.4956 8.62663 22.4887 6.23045 21.0117 4.75345C19.5346 3.2763 17.1384 3.26948 15.6698 4.73809L8.06005 12.3478C7.43081 12.9771 7.43359 14.0043 8.06657 14.6373C8.69956 15.2702 9.72675 15.273 10.356 14.6438L17.5852 7.41456C18.006 6.99376 18.689 6.99655 19.1114 7.41891C19.5339 7.84141 19.5367 8.52444 19.1159 8.94523L11.8867 16.1745C10.4181 17.6431 8.02174 17.6361 6.54474 16.1591C5.06773 14.6821 5.06077 12.2858 6.52938 10.8172L14.1391 3.20741C16.4463 0.90027 20.2124 0.910162 22.5337 3.23147C24.8549 5.55263 24.8648 9.31877 22.5576 11.6259L14.187 19.9966C11.0396 23.1439 5.90519 23.1293 2.73986 19.964Z" fill="#09110E"/>
</svg>
