<svg width="20" height="19" viewBox="0 0 20 19" fill="none" xmlns="http://www.w3.org/2000/svg">
<path opacity="0.4" d="M19.6739 7.93854L18.6939 12.1185C17.8539 15.7285 16.1939 17.1885 13.0739 16.8885C12.5739 16.8485 12.0339 16.7585 11.4539 16.6185L9.77385 16.2185C5.60385 15.2285 4.31385 13.1685 5.29385 8.98854L6.27385 4.79854C6.47385 3.94854 6.71385 3.20854 7.01385 2.59854C8.18385 0.178543 10.1739 -0.471457 13.5139 0.318543L15.1839 0.708543C19.3739 1.68854 20.6539 3.75854 19.6739 7.93854Z" fill="white"/>
<path d="M13.074 16.8877C12.454 17.3077 11.674 17.6577 10.724 17.9677L9.14401 18.4877C5.17401 19.7677 3.08401 18.6977 1.79401 14.7277L0.514013 10.7777C-0.765987 6.80766 0.294013 4.70766 4.26401 3.42766L5.84401 2.90766C6.25401 2.77766 6.64401 2.66766 7.01401 2.59766C6.71401 3.20766 6.47401 3.94766 6.27401 4.79766L5.29401 8.98766C4.31401 13.1677 5.60401 15.2277 9.77401 16.2177L11.454 16.6177C12.034 16.7577 12.574 16.8477 13.074 16.8877Z" fill="white"/>
</svg>
