<svg width="16" height="20" viewBox="0 0 16 20" fill="none" xmlns="http://www.w3.org/2000/svg">
<path d="M15.2344 5.27344L11.1328 4.10156L9.96094 0H1.17188C0.524648 0 0 0.524648 0 1.17188V18.8281C0 19.4754 0.524648 20 1.17188 20H14.0625C14.7097 20 15.2344 19.4754 15.2344 18.8281V5.27344Z" fill="#59C36A"/>
<path d="M15.2343 5.27344V18.8281C15.2343 19.4754 14.7097 20 14.0625 20H7.71094V0H9.9609L11.1328 4.10156L15.2343 5.27344Z" fill="#00A66C"/>
<path d="M15.2344 5.27344H11.1328C10.4883 5.27344 9.96094 4.74609 9.96094 4.10156V0C10.1133 0 10.2656 0.0585938 10.3711 0.17582L15.0586 4.86332C15.1758 4.96875 15.2344 5.12109 15.2344 5.27344Z" fill="#A0DEB0"/>
<path d="M4.23115 13.07C3.70449 13.07 3.26949 12.895 2.92615 12.545C2.58282 12.195 2.41115 11.7633 2.41115 11.25C2.41115 10.7333 2.58282 10.3017 2.92615 9.955C3.26949 9.605 3.70449 9.43 4.23115 9.43C4.54782 9.43 4.83949 9.505 5.10615 9.655C5.37615 9.80167 5.58615 10.0017 5.73615 10.255L5.14115 10.6C5.05449 10.4433 4.93115 10.3217 4.77115 10.235C4.61115 10.145 4.43115 10.1 4.23115 10.1C3.89115 10.1 3.61615 10.2067 3.40615 10.42C3.19949 10.6333 3.09615 10.91 3.09615 11.25C3.09615 11.5867 3.19949 11.8617 3.40615 12.075C3.61615 12.2883 3.89115 12.395 4.23115 12.395C4.43115 12.395 4.61115 12.3517 4.77115 12.265C4.93449 12.175 5.05782 12.0533 5.14115 11.9L5.73615 12.245C5.58615 12.4983 5.37782 12.7 5.11115 12.85C4.84449 12.9967 4.55115 13.07 4.23115 13.07ZM7.01037 13L5.83537 9.5H6.58537L7.44037 12.19L8.29037 9.5H9.04537L7.86537 13H7.01037ZM10.48 13.07C10.1334 13.07 9.84169 12.9933 9.60502 12.84C9.36835 12.6833 9.20169 12.4717 9.10502 12.205L9.69502 11.86C9.83169 12.2167 10.1 12.395 10.5 12.395C10.6934 12.395 10.835 12.36 10.925 12.29C11.015 12.22 11.06 12.1317 11.06 12.025C11.06 11.9017 11.005 11.8067 10.895 11.74C10.785 11.67 10.5884 11.595 10.305 11.515C10.1484 11.4683 10.015 11.4217 9.90502 11.375C9.79835 11.3283 9.69002 11.2667 9.58002 11.19C9.47335 11.11 9.39169 11.01 9.33502 10.89C9.27835 10.77 9.25002 10.63 9.25002 10.47C9.25002 10.1533 9.36169 9.90167 9.58502 9.715C9.81169 9.525 10.0834 9.43 10.4 9.43C10.6834 9.43 10.9317 9.5 11.145 9.64C11.3617 9.77667 11.53 9.96833 11.65 10.215L11.07 10.55C10.93 10.25 10.7067 10.1 10.4 10.1C10.2567 10.1 10.1434 10.1333 10.06 10.2C9.98002 10.2633 9.94002 10.3467 9.94002 10.45C9.94002 10.56 9.98502 10.65 10.075 10.72C10.1684 10.7867 10.345 10.86 10.605 10.94C10.7117 10.9733 10.7917 11 10.845 11.02C10.9017 11.0367 10.9767 11.065 11.07 11.105C11.1667 11.1417 11.24 11.1767 11.29 11.21C11.3434 11.2433 11.4034 11.2883 11.47 11.345C11.5367 11.4017 11.5867 11.46 11.62 11.52C11.6567 11.58 11.6867 11.6533 11.71 11.74C11.7367 11.8233 11.75 11.915 11.75 12.015C11.75 12.3383 11.6317 12.595 11.395 12.785C11.1617 12.975 10.8567 13.07 10.48 13.07Z" fill="white"/>
</svg>
