<svg width="41" height="36" viewBox="0 0 41 36" fill="none" xmlns="http://www.w3.org/2000/svg">
<path d="M37.3448 4.11831C38.9588 4.32568 40.1099 5.78674 39.9338 7.40447L37.6435 27.6689C37.4674 29.2817 36.0171 30.4464 34.4043 30.2702C34.372 30.2666 34.3398 30.2625 34.3076 30.258H34.1582V11.6863C34.1582 10.0365 32.8207 8.69894 31.1708 8.69894H6.276L6.87344 3.71995C7.02611 2.10479 8.45925 0.919158 10.0744 1.07183C10.1028 1.0745 10.1312 1.07764 10.1596 1.08117L37.3448 4.11831Z" fill="#0E5753"/>
<path d="M34.1577 30.2578V32.0502C34.1577 33.7001 32.8202 35.0376 31.1703 35.0376H3.83578C2.18593 35.0376 0.848389 33.7001 0.848389 32.0502V27.8678L9.06369 21.8932C10.3663 20.9049 12.189 20.9887 13.3954 22.0923L18.8722 26.8721C20.0202 27.8456 21.6586 27.9855 22.955 27.2207L34.1577 20.6484V30.2578Z" fill="#C4C4C4"/>
<path d="M34.1577 30.2578V32.0502C34.1577 33.7001 32.8202 35.0376 31.1703 35.0376H3.83578C2.18593 35.0376 0.848389 33.7001 0.848389 32.0502V27.8678L9.06369 21.8932C10.3663 20.9049 12.189 20.9887 13.3954 22.0923L18.8722 26.8721C20.0202 27.8456 21.6586 27.9855 22.955 27.2207L34.1577 20.6484V30.2578Z" fill="#E4572E"/>
<path d="M34.1577 30.2578V32.0502C34.1577 33.7001 32.8202 35.0376 31.1703 35.0376H3.83578C2.18593 35.0376 0.848389 33.7001 0.848389 32.0502V27.8678L9.06369 21.8932C10.3663 20.9049 12.189 20.9887 13.3954 22.0923L18.8722 26.8721C20.0202 27.8456 21.6586 27.9855 22.955 27.2207L34.1577 20.6484V30.2578Z" fill="url(#paint0_linear_316_8289)"/>
<path d="M34.1577 11.6866V20.6488L22.955 27.221C21.6586 27.9859 20.0202 27.846 18.8722 26.8725L13.3954 22.0927C12.189 20.9891 10.3663 20.9052 9.06369 21.8935L0.848389 27.8683V11.6866C0.848389 10.0368 2.18593 8.69922 3.83578 8.69922H31.1703C32.8203 8.69922 34.1577 10.0367 34.1577 11.6866ZM23.9508 16.8648C23.9516 15.1049 22.5255 13.6776 20.7657 13.6769C19.0058 13.6761 17.5785 15.1022 17.5778 16.862C17.5778 16.863 17.5778 16.8638 17.5778 16.8648C17.577 18.6247 19.0031 20.0519 20.7629 20.0527C22.5228 20.0534 23.95 18.6274 23.9508 16.8675C23.9508 16.8666 23.9508 16.8656 23.9508 16.8648Z" fill="#FFC5B0"/>
<path d="M20.7643 20.0528C22.5242 20.0528 23.9509 18.6262 23.9509 16.8663C23.9509 15.1064 22.5242 13.6797 20.7643 13.6797C19.0044 13.6797 17.5778 15.1064 17.5778 16.8663C17.5778 18.6262 19.0044 20.0528 20.7643 20.0528Z" fill="#D4E1F4"/>
<path d="M20.7632 21.0483C18.4534 21.0483 16.5808 19.1759 16.5808 16.866C16.5808 14.5562 18.4533 12.6836 20.7632 12.6836C23.0731 12.6836 24.9455 14.5561 24.9455 16.866C24.9455 19.1759 23.0731 21.0483 20.7632 21.0483ZM20.7632 14.6753C19.5532 14.6753 18.5724 15.6561 18.5724 16.8661C18.5724 18.076 19.5532 19.0568 20.7632 19.0568C21.9731 19.0568 22.954 18.076 22.954 16.8661C22.954 15.6561 21.9731 14.6753 20.7632 14.6753Z" fill="white"/>
<path d="M40.0822 4.61782C39.4338 3.79147 38.4855 3.25464 37.4433 3.12418L10.2581 0.0371933C9.20301 -0.11281 8.13403 0.195202 7.32054 0.883654C6.50715 1.51435 5.98576 2.44926 5.87664 3.47269L5.37879 7.55547H3.8352C1.64443 7.55547 0.00134554 9.49732 0.00134554 11.688V32.052C-0.0538336 34.1411 1.59496 35.8795 3.68415 35.9347C3.73447 35.936 3.78488 35.9363 3.8352 35.9356H31.1697C33.3605 35.9356 35.3521 34.2428 35.3521 32.052V31.2554C36.0313 31.1242 36.6756 30.8529 37.2441 30.4588C38.0508 29.7796 38.5674 28.8177 38.688 27.7702L40.9784 7.55556C41.0901 6.49525 40.7666 5.43512 40.0822 4.61782ZM3.8352 9.54706H31.1697C32.34 9.59557 33.2851 10.5192 33.3605 11.688V20.0526L22.5063 26.3759C21.5743 26.9281 20.3946 26.8281 19.5688 26.127L14.0919 21.3472C12.5417 19.9647 10.2336 19.8607 8.56526 21.0983L1.99294 25.8781V11.688C1.99294 10.5926 2.73981 9.54706 3.8352 9.54706ZM31.1697 33.9441H3.8352C2.84569 33.9731 2.02001 33.1945 1.99094 32.205C1.98941 32.154 1.99008 32.1029 1.99294 32.052V28.3676L9.71039 22.6916C10.6375 21.9799 11.9433 22.0431 12.7974 22.8409L18.2245 27.6208C19.0486 28.3127 20.0861 28.6996 21.162 28.7161C22.0033 28.7264 22.8308 28.5024 23.552 28.0689L33.3605 22.3928V32.052C33.3605 33.1473 32.2651 33.9441 31.1697 33.9441ZM38.9868 7.30645L36.6467 27.5211C36.6507 28.0452 36.4117 28.5416 35.9994 28.8654C35.8002 29.0646 35.3521 29.1641 35.3521 29.2637V11.688C35.2735 9.41974 33.4388 7.60684 31.1697 7.55547H7.37029L7.81839 3.67187C7.9156 3.16897 8.17853 2.71324 8.56526 2.3773C9.00193 2.07539 9.5299 1.93463 10.0589 1.97895L37.1944 5.11567C37.73 5.15675 38.2209 5.4295 38.5387 5.86255C38.8769 6.26357 39.0385 6.78439 38.9868 7.30645Z" fill="white"/>
<defs>
<linearGradient id="paint0_linear_316_8289" x1="17.503" y1="20.6484" x2="17.503" y2="35.0376" gradientUnits="userSpaceOnUse">
<stop stop-color="#FA7C47"/>
<stop offset="1" stop-color="#E4572E"/>
</linearGradient>
</defs>
</svg>
