<svg width="38" height="38" viewBox="0 0 38 38" fill="none" xmlns="http://www.w3.org/2000/svg">
<g clip-path="url(#clip0_1_1945)">
<path d="M29.6202 0H8.38059C7.76594 0 7.26709 0.498104 7.26709 1.1135V4.47106H30.7337V1.1135C30.7337 0.498104 30.2348 0 29.6202 0Z" fill="white"/>
<path d="M22.5823 18.669L24.035 17.2163V22.3577H13.9661V17.2163L15.4188 18.669C15.8805 19.1307 16.6407 19.0991 17.0616 18.594L19.0006 16.2676L20.9395 18.594C21.3592 19.0976 22.1193 19.132 22.5823 18.669Z" fill="white"/>
<path d="M7.26727 6.69849V36.8854C7.26727 37.742 8.19667 38.2787 8.939 37.8489L19.0006 32.0239L29.0621 37.8489C29.803 38.2787 30.7338 37.7428 30.7338 36.8854V6.69849H7.26727ZM26.262 23.4715C26.262 24.0861 25.7639 24.5849 25.1485 24.5849H12.8526C12.2372 24.5849 11.7391 24.0861 11.7391 23.4715V14.5279C11.7391 13.5399 12.9385 13.0401 13.6394 13.741L16.1314 16.2322L18.1454 13.8152C18.5905 13.2811 19.4105 13.281 19.8557 13.8152L21.8697 16.2322L24.3617 13.741C25.063 13.0396 26.262 13.5405 26.262 14.5279V23.4715Z" fill="white"/>
</g>
<defs>
<clipPath id="clip0_1_1945">
<rect width="38" height="38" fill="white"/>
</clipPath>
</defs>
</svg>
