<svg width="20" height="19" viewBox="0 0 20 19" fill="none" xmlns="http://www.w3.org/2000/svg">
<path opacity="0.4" d="M10 2.63759V18.6676C9.83 18.6676 9.65 18.6376 9.51 18.5576L9.47 18.5376C7.55 17.4876 4.2 16.3876 2.03 16.0976L1.74 16.0576C0.78 15.9376 0 15.0376 0 14.0776V1.99759C0 0.807591 0.97 -0.0924088 2.16 0.0075912C4.26 0.177591 7.44 1.23759 9.22 2.34759L9.47 2.49759C9.62 2.58759 9.81 2.63759 10 2.63759Z" fill="white"/>
<path d="M20 2.00938V14.0794C20 15.0394 19.22 15.9394 18.26 16.0594L17.93 16.0994C15.75 16.3894 12.39 17.4994 10.47 18.5594C10.34 18.6394 10.18 18.6694 10 18.6694V2.63938C10.19 2.63938 10.38 2.58938 10.53 2.49938L10.7 2.38938C12.48 1.26938 15.67 0.199384 17.77 0.0193845H17.83C19.02 -0.0806155 20 0.809384 20 2.00938Z" fill="white"/>
<path d="M5.75 6.57812H3.5C3.09 6.57812 2.75 6.23812 2.75 5.82812C2.75 5.41813 3.09 5.07812 3.5 5.07812H5.75C6.16 5.07812 6.5 5.41813 6.5 5.82812C6.5 6.23812 6.16 6.57812 5.75 6.57812Z" fill="white"/>
<path d="M6.5 9.57812H3.5C3.09 9.57812 2.75 9.23812 2.75 8.82812C2.75 8.41813 3.09 8.07812 3.5 8.07812H6.5C6.91 8.07812 7.25 8.41813 7.25 8.82812C7.25 9.23812 6.91 9.57812 6.5 9.57812Z" fill="white"/>
</svg>
