<svg width="21" height="20" viewBox="0 0 21 20" fill="none" xmlns="http://www.w3.org/2000/svg">
<path opacity="0.4" d="M18.05 4.81774L12.29 0.78774C10.72 -0.31226 8.31 -0.252259 6.8 0.917741L1.79 4.82774C0.79 5.60774 0 7.20774 0 8.46774V15.3677C0 17.9177 2.07 19.9977 4.62 19.9977H15.4C17.95 19.9977 20.02 17.9277 20.02 15.3777V8.59774C20.02 7.24774 19.15 5.58774 18.05 4.81774Z" fill="white"/>
<path d="M10.0098 16.7461C9.59977 16.7461 9.25977 16.4061 9.25977 15.9961V12.9961C9.25977 12.5861 9.59977 12.2461 10.0098 12.2461C10.4198 12.2461 10.7598 12.5861 10.7598 12.9961V15.9961C10.7598 16.4061 10.4198 16.7461 10.0098 16.7461Z" fill="white"/>
</svg>
