<svg width="169" height="187" viewBox="0 0 169 187" fill="none" xmlns="http://www.w3.org/2000/svg">
<g clip-path="url(#clip0_204_135)">
<path d="M44.0131 43.3492C47.2925 43.719 48.6733 41.278 48.6733 41.278L48.9199 39.0835C49.561 38.7629 50.424 37.8753 50.424 37.8753L50.5966 35.3356C51.0897 34.7685 55.8239 34.5219 55.8239 32.2781C55.8239 30.0343 52.002 29.3439 50.9171 29.0973C49.8322 28.8508 50.3993 26.5083 50.3993 24.733C50.3993 22.9577 49.9555 21.6262 47.2432 21.7248C44.5309 21.8481 46.3556 21.207 43.6679 21.207C41.005 21.207 39.5009 28.0124 39.5009 28.0124C36.1475 27.9384 33.953 25.2261 33.9037 28.4069C33.8544 31.6124 38.8351 33.7822 38.8351 33.7822V37.3082L39.1557 38.2698V39.8479C39.7228 42.2889 44.0131 43.3492 44.0131 43.3492Z" fill="#FBF1DA"/>
<path d="M129.524 151.273C117.368 151.273 87.2371 152.012 78.5084 149.202C72.3195 147.229 67.3881 145.552 56.5142 144.739L51.7308 138.821L52.2239 116.309L55.9471 93.9448L59.2758 91.9229L59.0293 90.049L61.8648 88.2737L61.7909 82.5285L63.0977 80.6546L62.7772 77.1779L67.5607 70.3479C70.5935 66.0082 70.6921 60.2631 67.7826 55.8248L61.5196 46.3565L51.7308 42.2141L49.8568 44.0633C52.076 46.7263 51.065 49.34 51.065 49.34C48.4267 48.1811 47.4404 46.6523 47.0459 45.7647C47.3418 45.6661 47.5637 45.3948 47.5637 45.0743C47.5637 44.6798 47.2431 44.3346 46.824 44.3346C46.4295 44.3346 46.0843 44.6551 46.0843 45.0743C46.0843 45.4688 46.3801 45.7647 46.7747 45.7893C46.3801 50.2769 43.8158 50.6221 43.8158 50.6221C41.3008 47.5153 43.8651 44.8277 43.8651 44.8277C43.8651 44.8277 42.1145 44.6798 40.2159 43.9401C38.3419 43.2003 36.5419 40.8086 36.5419 40.8086L25.1503 47.2688L21.6243 67.8082V86.8435L22.8325 87.5339L26.1613 85.3395L30.5256 84.8463L32.3009 88.1257L31.931 91.2818L31.4379 91.4051L29.8352 89.3339L30.6242 92.0462L30.0818 92.9585L25.6188 93.1558L25.0517 100.356L26.827 110.884L29.9092 115.249L29.6626 127.972L31.5365 141.829L28.6023 144.985C11.7615 147.451 2.95886 155.218 0 158.547C0 158.547 28.4297 186.976 72.2948 186.976C121.486 186.976 148.954 160.001 148.954 160.001C148.954 160.001 141.655 151.273 129.524 151.273ZM37.8734 117.468L40.5364 115.125L39.5748 107.26L42.0898 99.8872L42.9281 103.29L41.6706 107.309L42.5583 109.775V114.139L44.9007 117.714V144.295C43.1994 144.27 41.3994 144.245 39.4761 144.245C38.9337 144.245 38.3912 144.245 37.8488 144.27V117.468H37.8734ZM121.609 169.988C117.837 169.988 108.837 164.144 107.037 163.305C105.237 162.467 104.127 163.799 100.725 164.514C97.3219 165.253 88.1001 164.144 85.659 163.552C83.218 162.936 76.6591 163.552 69.7798 162.59C62.9004 161.629 53.8266 155.908 49.4376 153.96C45.0487 152.012 30.1064 151.643 30.1064 151.643C37.8734 149.325 47.3664 150.188 57.5745 150.188C67.7826 150.188 72.2702 155.045 86.596 156.87C100.922 158.695 111.031 156.87 121.338 156.87C131.645 156.87 138.351 159.779 138.351 159.779C139.239 161.851 125.382 169.988 121.609 169.988Z" fill="#FBF1DA"/>
<path d="M151.346 59.5214L152.48 58.4119L147.869 54.2201L146.834 55.2804L146.291 54.7626L143.85 54.516L142.814 53.1845L142.642 50.9407L140.398 48.4504L137.069 46.4531L133.839 49.6092L134.505 51.8037L137.908 55.2557L140.447 55.9215L141.656 57.3763L142.025 59.8173L142.223 59.9899L141.532 60.6803L141.261 60.4091L140.571 61.0995L140.842 61.3707L140.497 61.7159L140.225 61.4447L139.535 62.1351L139.831 62.431L139.486 62.7762L139.19 62.4803L138.524 63.146H138.204V64.083L134.875 67.4857H133.913V68.4473L133.568 68.7925V68.6692H132.606V69.8035L129.45 73.0089H128.316V73.9705H128.513L114.829 87.9758C101.81 76.0664 78.5825 54.8119 78.5825 54.8119L77.9167 55.5516L79.2236 56.8338L78.6565 57.4502L79.7907 58.6584L78.3359 60.3105L84.4262 65.8337L84.1304 66.1789L86.3495 68.1761L86.67 67.8556L101.218 81.0718L100.996 81.343L103.733 83.8827L103.979 83.5622L108.738 87.8772L109.133 89.3813L111.574 91.3785L84.944 118.625L84.4509 118.156L83.7851 118.871L84.2536 119.315L84.0071 119.562L83.4893 119.069L82.8235 119.784L83.3413 120.277L83.0947 120.523L82.5276 119.981L81.8619 120.696L82.4044 121.214L82.1578 121.46L81.566 120.893L80.9003 121.608L81.492 122.175L81.2455 122.422L80.6044 121.805L79.9386 122.521L80.5797 123.112L80.3331 123.359L79.766 122.816L79.1003 123.531L79.6674 124.049L77.8428 125.923L81.0729 129.696L83.292 127.501L83.8345 128.019L84.5002 127.304L83.9577 126.811L84.2043 126.564L84.6728 127.008L85.3386 126.293L84.8947 125.874L85.1413 125.627L85.6344 126.096L86.3002 125.381L85.8317 124.937L86.0783 124.69L86.5961 125.183L87.2618 124.468L86.7687 124L87.0152 123.753L87.5577 124.271L88.2234 123.556L87.7056 123.063L87.9522 122.816L88.5193 123.359L88.6673 123.211V126.466C85.955 128.611 86.8673 132.926 86.8673 132.926L88.0508 133.592L86.4974 135.293L82.1331 147.942L85.807 144.613L86.0783 142.665L86.818 141.975L87.9522 139.238L88.47 138.918L88.3714 137.216L89.1604 137.093L89.3577 134.529L89.9494 134.134L89.8015 132.383L90.3193 131.594C90.9111 129.227 90.122 127.551 89.5796 126.712V121.584H89.0864L89.5549 121.115L91.2316 126.194C89.9494 129.005 92.0206 132.581 92.0206 132.581L93.4261 132.359L92.5878 134.455L92.5631 136.649L93.4508 138.005L92.711 139.189L93.648 140.52L93.2042 141.309L93.648 142.444L93.5494 144.219L93.5001 148.879C95.8918 147.153 95.5959 143.208 95.5959 143.208L94.9548 141.827L95.8672 141.433L96.0151 137.463L95.1028 135.909L96.237 135.392L95.1028 133.394L95.5466 132.457L95.6946 131.668L94.5357 130.978L95.0781 129.646C94.4617 127.107 92.5384 125.726 91.9713 125.381L90.4179 120.597L89.9494 120.745L115.642 95.1264C118.749 97.962 122.99 101.833 126.023 104.718L125.924 104.644C125.9 104.669 125.209 105.433 125.259 106.345C125.283 106.814 125.505 107.258 125.924 107.603C126.417 108.022 126.935 108.17 127.379 108.17C128.267 108.17 128.957 107.603 128.957 107.603L128.858 107.504C129.352 107.997 129.672 108.367 129.795 108.54C130.757 110.044 130.313 110.858 131.546 112.633C132.779 114.408 145.157 132.112 145.157 132.112L151.469 125.381L136.108 111.252L134.653 110.882C134.653 110.882 133.568 109.674 132.532 106.937C131.842 105.137 129.623 102.302 127.108 99.5647L128.513 98.6277L128.858 95.8908L128.563 95.8414L128.39 97.2469L126.59 97.3702L128.242 98.4305L126.935 99.3181C126.935 99.3181 125.382 97.7154 124.543 96.9264L125.431 96.0634V93.9428H125.135V95.9401L124.346 96.7291C123.927 96.3346 123.533 95.9401 123.138 95.5949C122.546 95.0524 121.067 93.6963 118.996 91.7977L132.606 78.2116V78.3349H133.568V77.2499L136.847 73.9705H137.883V73.0089H137.834L138.228 72.6144V72.787H139.19V71.6528L142.395 68.4473H143.48V68.1268L144.171 67.4364L143.776 67.0419L144.121 66.6967L144.516 67.0912L145.206 66.4008L144.812 66.0063L145.157 65.6611L145.551 66.0556L146.242 65.3652L145.847 64.9707L146.636 64.1816L150.039 67.461H151.74L154.231 85.1402C164.242 83.8087 168.433 75.5486 168.433 75.5486L151.346 59.5214ZM79.0017 60.2611L79.2975 59.9159L85.018 65.094L84.7221 65.4638L79.0017 60.2611ZM86.9659 67.4857L87.4591 66.9926L101.785 80.3074L101.489 80.6773L86.9659 67.4857ZM104.226 83.1923L104.423 82.9704L108.27 86.2991L108.467 87.0635L104.226 83.1923ZM128.784 107.406C128.686 107.48 127.404 108.515 126.146 107.406C125.801 107.11 125.604 106.74 125.579 106.345C125.53 105.556 126.146 104.866 126.171 104.841C126.689 105.334 127.157 105.778 127.601 106.197C127.601 106.197 127.157 106.913 126.467 106.814C126.467 106.814 127.058 107.282 128.119 106.715C128.341 106.962 128.587 107.184 128.784 107.406ZM88.618 122.151L88.5933 122.126L88.618 122.101V122.151Z" fill="#FBF1DA"/>
<path d="M115.741 54.6914H114.409V60.979H115.716V56.8119L118.182 60.979H119.489V54.6914H118.182V58.8338L115.741 54.6914Z" fill="#FBF1DA"/>
<path d="M75.8456 100.822L76.8319 96.2599L77.8182 100.822H79.199C79.914 98.7257 80.4811 96.6298 80.8756 94.5586H79.5688C79.3469 96.0627 79.0017 97.5668 78.5579 99.0709L77.5716 94.5586H76.1415L75.1798 99.0462C74.7607 97.5421 74.4155 96.0627 74.1935 94.5586H72.8374C73.2319 96.6545 73.799 98.7503 74.5141 100.822H75.8456Z" fill="#FBF1DA"/>
<path d="M154.428 98.0846H157.51V96.9997H154.428V95.6188H157.757V94.5586H153.121V100.822H157.905V99.7366H154.428V98.0846Z" fill="#FBF1DA"/>
<path d="M116.826 139.586C115.593 139.586 115.494 139.241 115.445 138.575H114.138C114.212 139.882 114.779 140.696 116.826 140.696C117.763 140.696 119.267 140.523 119.267 138.772C119.267 137.515 118.502 137.17 117.615 136.923L116.209 136.553C115.839 136.454 115.568 136.331 115.568 135.863C115.568 135.37 115.889 135.246 116.554 135.246C117.664 135.246 117.689 135.591 117.763 136.109H119.069C119.045 135 118.478 134.137 116.628 134.137C114.68 134.137 114.286 135.074 114.286 135.986C114.286 137.12 114.952 137.49 115.716 137.712L117.245 138.131C117.787 138.279 117.96 138.501 117.96 138.871C117.96 139.487 117.491 139.586 116.826 139.586Z" fill="#FBF1DA"/>
<path d="M11.515 39.8947C13.8574 37.4536 14.4245 34.9879 11.6136 32.2756L10.6273 31.314L7.00274 35.0125L8.45751 36.418L10.3561 34.4454C11.6136 35.6536 11.6876 36.6646 10.0109 38.4152C8.53149 39.944 7.17534 40.3631 4.73428 37.996C2.39185 35.7276 2.58911 34.2975 4.14251 32.6701C5.57263 31.1907 6.53425 31.2153 7.47123 31.9057L9.17257 30.1551C7.0274 28.4044 4.80825 28.9715 2.61376 31.2646C0.789134 33.1632 -0.862897 36.0235 3.00828 39.7467C6.65754 43.2973 9.46846 41.9905 11.515 39.8947Z" fill="#FBF1DA"/>
<path d="M21.008 31.2913C23.2518 29.4914 24.8298 26.9517 21.5998 22.9079C18.3203 18.7901 15.4601 19.8997 13.2656 21.6504C11.1698 23.3271 9.32048 25.8174 12.6739 30.0338C15.83 33.979 18.6409 33.1653 21.008 31.2913ZM14.5478 23.2777C16.3971 21.7983 17.7532 22.0202 19.6272 24.3873C22.0189 27.3955 21.0573 28.579 19.7751 29.6146C18.0245 31.0201 16.7916 31.2174 14.6464 28.5297C12.5999 25.9407 12.8218 24.6339 14.5478 23.2777Z" fill="#FBF1DA"/>
<path d="M35.2845 21.4999L33.0407 12.9931L38.6132 19.8232L40.931 18.6396C40.3145 14.5219 39.4762 10.5028 38.3666 6.65625L36.1721 7.79048C37.1091 10.5028 37.8242 13.3383 38.3666 16.2479L32.8188 9.51648L30.427 10.7493L32.6708 19.1328C30.6736 16.9876 28.8243 14.7438 27.1476 12.4507L24.8545 13.6342C27.3202 16.815 30.0818 19.8232 33.0653 22.7327L35.2845 21.4999Z" fill="#FBF1DA"/>
<path d="M43.3507 5.00256L41.0593 5.84375L45.1463 16.9768L47.4377 16.1356L43.3507 5.00256Z" fill="#FBF1DA"/>
<path d="M57.9444 13.1177L57.4019 11.0959L51.6814 12.5999L49.1911 3.15625L46.824 3.77268L49.8322 15.2383L57.9444 13.1177Z" fill="#FBF1DA"/>
<path d="M64.5771 12.231C68.2264 11.8365 69.4346 9.78994 68.9661 5.7215C68.4976 1.50513 66.9935 0.0503545 63.295 0.444869L58.3882 0.987327L59.695 12.7488L64.5771 12.231ZM62.9251 2.54073C65.7607 2.22019 66.1552 2.81196 66.525 6.01739C66.8456 9.02556 66.4018 9.98719 64.0593 10.2338L61.9142 10.4803L61.0512 2.73799L62.9251 2.54073Z" fill="#FBF1DA"/>
<path d="M79.5441 6.83004L84.1303 7.37249L83.5139 12.5998L85.9549 12.8957L87.3604 1.13423L84.9193 0.838344L84.3769 5.37526L79.766 4.80815L80.3084 0.295886L77.892 0L76.4866 11.7615L78.903 12.0574L79.5441 6.83004Z" fill="#FBF1DA"/>
<path d="M91.0388 1.98272L88.324 13.5273L90.7001 14.0861L93.4149 2.54148L91.0388 1.98272Z" fill="#FBF1DA"/>
<path d="M97.3219 16.3484C98.9986 16.9155 101.785 17.5566 102.894 14.4005C103.659 12.1567 102.525 11.0718 101.094 10.1101L98.826 8.5814C98.2342 8.18688 97.815 7.79237 98.1109 6.97868C98.4068 6.09102 99.0972 6.06637 100.256 6.48554C102.253 7.17594 102.081 7.81703 101.883 8.77866L104.201 9.56769C104.842 7.5458 104.349 5.67185 101.045 4.53762C97.5684 3.35408 96.2616 4.78419 95.7192 6.38691C95.0041 8.43346 95.9904 9.49372 97.2232 10.3321L99.689 12.0087C100.577 12.6252 100.774 13.0937 100.527 13.7841C100.133 14.9183 99.2205 14.795 98.0369 14.4005C95.8178 13.6361 95.8671 12.9457 96.163 11.7375L93.8452 10.9485C93.1548 13.2909 93.6726 15.0909 97.3219 16.3484Z" fill="#FBF1DA"/>
<path d="M107.9 20.5402L112.165 11.7623L115.371 13.3157L116.283 11.4417L107.678 7.25L106.766 9.12395L109.971 10.6773L105.705 19.4553L107.9 20.5402Z" fill="#FBF1DA"/>
<path d="M116.333 25.6925C118.749 27.2459 121.683 27.9363 124.469 23.572C127.33 19.1337 125.357 16.7913 122.99 15.2625C120.746 13.8078 117.763 12.8708 114.853 17.383C112.116 21.6487 113.793 24.0651 116.333 25.6925ZM116.924 18.7638C118.7 16.0022 120.006 15.805 121.856 16.9885C123.853 18.2707 124.075 19.6268 122.448 22.1665C120.376 25.3966 118.946 24.8788 117.541 23.9912C115.642 22.7583 115.05 21.6734 116.924 18.7638Z" fill="#FBF1DA"/>
<path d="M124.79 31.4136L127.773 27.8383L129.475 29.2438L128.735 34.693L131.028 36.5916L131.719 30.9205C132.951 31.5369 134.258 31.4876 135.738 29.7123C137.957 27.0246 136.354 25.6192 134.456 24.0411L130.51 20.7617L122.941 29.8849L124.79 31.4136ZM131.078 23.8439L132.878 25.348C134.456 26.6794 134.628 27.1233 133.864 28.0356C132.902 29.1698 132.286 28.8986 130.757 27.6411L129.056 26.2356L131.078 23.8439Z" fill="#FBF1DA"/>
<path d="M135.491 41.2534L138.82 38.0479C141.705 37.5794 144.368 36.8397 146.883 35.9767L144.935 33.9548C143.307 34.6699 141.557 35.237 139.609 35.6315C140.053 33.7083 140.644 31.933 141.409 30.3056L139.412 28.2344C138.475 30.7001 137.661 33.3384 137.119 36.248L133.765 39.478L135.491 41.2534Z" fill="#FBF1DA"/>
</g>
<defs>
<clipPath id="clip0_204_135">
<rect width="168.458" height="187" fill="white"/>
</clipPath>
</defs>
</svg>
