<svg width="39" height="39" viewBox="0 0 39 39" fill="none" xmlns="http://www.w3.org/2000/svg">
<circle cx="19.5" cy="19.5" r="19.5" fill="#FF0000" fill-opacity="0.2"/>
<path d="M19.5 4.375C22.7821 4.375 25.9297 5.67879 28.2504 7.99955C30.5712 10.3203 31.875 13.4679 31.875 16.75C31.875 21.8733 27.97 27.2412 20.325 32.975C20.087 33.1535 19.7975 33.25 19.5 33.25C19.2025 33.25 18.913 33.1535 18.675 32.975C11.03 27.2412 7.125 21.8733 7.125 16.75C7.125 13.4679 8.42879 10.3203 10.7496 7.99955C13.0703 5.67879 16.2179 4.375 19.5 4.375ZM19.5 12.625C18.406 12.625 17.3568 13.0596 16.5832 13.8332C15.8096 14.6068 15.375 15.656 15.375 16.75C15.375 17.844 15.8096 18.8932 16.5832 19.6668C17.3568 20.4404 18.406 20.875 19.5 20.875C20.594 20.875 21.6432 20.4404 22.4168 19.6668C23.1904 18.8932 23.625 17.844 23.625 16.75C23.625 15.656 23.1904 14.6068 22.4168 13.8332C21.6432 13.0596 20.594 12.625 19.5 12.625Z" fill="#FF0000"/>
</svg>
