<svg width="21" height="20" viewBox="0 0 21 20" fill="none" xmlns="http://www.w3.org/2000/svg">
<path opacity="0.4" d="M6.90932 2.59875C6.10932 -0.861249 0.899322 -0.871249 0.0993218 2.59875C-0.370678 4.62875 0.919322 6.34875 2.03932 7.41875C2.85932 8.18875 4.14932 8.18875 4.96932 7.41875C6.08932 6.34875 7.36932 4.62875 6.90932 2.59875ZM3.53932 4.19875C2.98932 4.19875 2.53932 3.74875 2.53932 3.19875C2.53932 2.64875 2.97932 2.19875 3.52932 2.19875H3.53932C4.09932 2.19875 4.53932 2.64875 4.53932 3.19875C4.53932 3.74875 4.09932 4.19875 3.53932 4.19875Z" fill="white"/>
<path d="M4.53906 3.19922C4.53906 3.74922 4.09906 4.19922 3.53906 4.19922C2.98906 4.19922 2.53906 3.74922 2.53906 3.19922C2.53906 2.64922 2.97906 2.19922 3.52906 2.19922H3.53906C4.09906 2.19922 4.53906 2.64922 4.53906 3.19922Z" fill="white"/>
<path opacity="0.4" d="M19.9393 14.5988C19.1393 11.1388 13.9093 11.1288 13.0993 14.5988C12.6293 16.6288 13.9193 18.3488 15.0493 19.4188C15.8693 20.1888 17.1693 20.1888 17.9893 19.4188C19.1193 18.3488 20.4093 16.6288 19.9393 14.5988ZM16.5593 16.1988C16.0093 16.1988 15.5593 15.7488 15.5593 15.1988C15.5593 14.6488 15.9993 14.1988 16.5493 14.1988H16.5593C17.1093 14.1988 17.5593 14.6488 17.5593 15.1988C17.5593 15.7488 17.1093 16.1988 16.5593 16.1988Z" fill="white"/>
<path d="M17.5586 15.1992C17.5586 15.7492 17.1086 16.1992 16.5586 16.1992C16.0086 16.1992 15.5586 15.7492 15.5586 15.1992C15.5586 14.6492 15.9986 14.1992 16.5486 14.1992H16.5586C17.1086 14.1992 17.5586 14.6492 17.5586 15.1992Z" fill="white"/>
<path d="M10.0287 17.75H7.34875C6.18875 17.75 5.17875 17.05 4.77875 15.97C4.36875 14.89 4.66875 13.7 5.53875 12.93L13.5287 5.94C14.0087 5.52 14.0188 4.95 13.8787 4.56C13.7288 4.17 13.3488 3.75 12.7087 3.75H10.0287C9.61875 3.75 9.27875 3.41 9.27875 3C9.27875 2.59 9.61875 2.25 10.0287 2.25H12.7087C13.8687 2.25 14.8787 2.95 15.2787 4.03C15.6887 5.11 15.3887 6.3 14.5187 7.07L6.52875 14.06C6.04875 14.48 6.03875 15.05 6.17875 15.44C6.32875 15.83 6.70875 16.25 7.34875 16.25H10.0287C10.4387 16.25 10.7787 16.59 10.7787 17C10.7787 17.41 10.4387 17.75 10.0287 17.75Z" fill="white"/>
</svg>
