<svg width="47" height="47" viewBox="0 0 47 47" fill="none" xmlns="http://www.w3.org/2000/svg">
<circle cx="23.6158" cy="23.1886" r="22.8526" fill="#00CC52" fill-opacity="0.3"/>
<path fillRule="evenodd" clipRule="evenodd" d="M27.8977 18.4736C27.8977 21.1412 25.7711 23.2802 23.1189 23.2802C20.4667 23.2802 18.34 21.1412 18.34 18.4736C18.34 15.8049 20.4667 13.668 23.1189 13.668C25.7711 13.668 27.8977 15.8049 27.8977 18.4736ZM23.1187 31.8329C19.2233 31.8329 15.8971 31.2153 15.8971 28.745C15.8971 26.2737 19.2019 25.6337 23.1187 25.6337C27.0141 25.6337 30.3403 26.2512 30.3403 28.7225C30.3403 31.1928 27.0355 31.8329 23.1187 31.8329ZM29.9399 18.5603C29.9399 19.9201 29.5343 21.187 28.8227 22.2401C28.7495 22.3485 28.8146 22.4947 28.9437 22.5172C29.1216 22.5479 29.3056 22.5653 29.4926 22.5704C31.358 22.6195 33.0323 21.4119 33.4948 19.594C34.18 16.8936 32.1682 14.4694 29.6065 14.4694C29.3279 14.4694 29.0616 14.499 28.8024 14.5522C28.7668 14.5604 28.7292 14.5767 28.7089 14.6084C28.6845 14.6473 28.7028 14.6994 28.7272 14.7332C29.4967 15.818 29.9399 17.1411 29.9399 18.5603ZM33.029 24.4676C34.2824 24.7141 35.1069 25.2171 35.4484 25.9482C35.7371 26.5484 35.7371 27.2447 35.4484 27.8438C34.9259 28.9777 33.2415 29.3417 32.5868 29.4358C32.4516 29.4562 32.3428 29.3387 32.3571 29.2027C32.6915 26.0606 30.0312 24.5709 29.343 24.2284C29.3135 24.213 29.3074 24.1895 29.3105 24.1752C29.3125 24.165 29.3247 24.1486 29.347 24.1456C30.8363 24.118 32.4374 24.3224 33.029 24.4676ZM16.861 22.5702C17.048 22.5651 17.231 22.5488 17.4099 22.5171C17.539 22.4946 17.6041 22.3484 17.5309 22.24C16.8193 21.1868 16.4137 19.92 16.4137 18.5601C16.4137 17.1409 16.8569 15.8179 17.6264 14.733C17.6508 14.6993 17.6681 14.6471 17.6447 14.6083C17.6244 14.5776 17.5858 14.5602 17.5512 14.5521C17.291 14.4989 17.0246 14.4692 16.7461 14.4692C14.1844 14.4692 12.1726 16.8935 12.8588 19.5938C13.3213 21.4118 14.9956 22.6193 16.861 22.5702ZM17.0424 24.1746C17.0455 24.1899 17.0394 24.2124 17.0109 24.2288C16.3217 24.5713 13.6613 26.0611 13.9958 29.2021C14.01 29.3391 13.9023 29.4556 13.7671 29.4362C13.1124 29.3422 11.428 28.9782 10.9055 27.8442C10.6157 27.2441 10.6157 26.5488 10.9055 25.9486C11.247 25.2175 12.0704 24.7145 13.3238 24.467C13.9165 24.3229 15.5166 24.1184 17.0068 24.146C17.0292 24.149 17.0404 24.1654 17.0424 24.1746Z" fill="#00CC52"/>
</svg>
