<svg width="21" height="20" viewBox="0 0 21 20" fill="none" xmlns="http://www.w3.org/2000/svg">
<path opacity="0.4" d="M7.03906 0C4.41906 0 2.28906 2.13 2.28906 4.75C2.28906 7.32 4.29906 9.4 6.91906 9.49C6.99906 9.48 7.07906 9.48 7.13906 9.49C7.15906 9.49 7.16906 9.49 7.18906 9.49C7.19906 9.49 7.19906 9.49 7.20906 9.49C9.76906 9.4 11.7791 7.32 11.7891 4.75C11.7891 2.13 9.65906 0 7.03906 0Z" fill="white"/>
<path d="M12.12 12.1489C9.33 10.2889 4.78 10.2889 1.97 12.1489C0.7 12.9989 0 14.1489 0 15.3789C0 16.6089 0.7 17.7489 1.96 18.5889C3.36 19.5289 5.2 19.9989 7.04 19.9989C8.88 19.9989 10.72 19.5289 12.12 18.5889C13.38 17.7389 14.08 16.5989 14.08 15.3589C14.07 14.1289 13.38 12.9889 12.12 12.1489Z" fill="white"/>
<path opacity="0.4" d="M18.0284 5.33815C18.1884 7.27815 16.8084 8.97815 14.8984 9.20815C14.8884 9.20815 14.8884 9.20815 14.8784 9.20815H14.8484C14.7884 9.20815 14.7284 9.20815 14.6784 9.22815C13.7084 9.27815 12.8184 8.96815 12.1484 8.39815C13.1784 7.47815 13.7684 6.09815 13.6484 4.59815C13.5784 3.78815 13.2984 3.04815 12.8784 2.41815C13.2584 2.22815 13.6984 2.10815 14.1484 2.06815C16.1084 1.89815 17.8584 3.35815 18.0284 5.33815Z" fill="white"/>
<path d="M20.0293 14.5904C19.9493 15.5604 19.3293 16.4004 18.2893 16.9704C17.2893 17.5204 16.0293 17.7804 14.7793 17.7504C15.4993 17.1004 15.9193 16.2904 15.9993 15.4304C16.0993 14.1904 15.5093 13.0004 14.3293 12.0504C13.6593 11.5204 12.8793 11.1004 12.0293 10.7904C14.2393 10.1504 17.0193 10.5804 18.7293 11.9604C19.6493 12.7004 20.1193 13.6304 20.0293 14.5904Z" fill="white"/>
</svg>
