<svg width="21" height="20" viewBox="0 0 21 20" fill="none" xmlns="http://www.w3.org/2000/svg">
<path opacity="0.4" d="M0.751771 16.6C0.341771 16.6 0.00177137 16.26 0.00177137 15.85V10.15C-0.0482286 7.44 0.961772 4.88 2.84177 2.96C4.72177 1.05 7.24177 0 9.95177 0C15.4918 0 20.0018 4.51 20.0018 10.05V15.75C20.0018 16.16 19.6618 16.5 19.2518 16.5C18.8418 16.5 18.5018 16.16 18.5018 15.75V10.05C18.5018 5.34 14.6718 1.5 9.95177 1.5C7.64177 1.5 5.50177 2.39 3.91177 4.01C2.31177 5.64 1.46177 7.81 1.50177 10.13V15.84C1.50177 16.26 1.17177 16.6 0.751771 16.6Z" fill="white"/>
<path d="M3.94195 10.3984H3.81195C1.71195 10.3984 0.00195312 12.1084 0.00195312 14.2084V16.0884C0.00195312 18.1884 1.71195 19.8984 3.81195 19.8984H3.94195C6.04195 19.8984 7.75195 18.1884 7.75195 16.0884V14.2084C7.75195 12.1084 6.04195 10.3984 3.94195 10.3984Z" fill="white"/>
<path d="M16.192 10.3984H16.062C13.962 10.3984 12.252 12.1084 12.252 14.2084V16.0884C12.252 18.1884 13.962 19.8984 16.062 19.8984H16.192C18.292 19.8984 20.002 18.1884 20.002 16.0884V14.2084C20.002 12.1084 18.292 10.3984 16.192 10.3984Z" fill="white"/>
</svg>
