<svg width="19" height="20" viewBox="0 0 19 20" fill="none" xmlns="http://www.w3.org/2000/svg">
<path d="M16.1905 1.5H2.31055C1.90055 1.5 1.56055 1.16 1.56055 0.75C1.56055 0.34 1.90055 0 2.31055 0H16.1905C16.6005 0 16.9405 0.34 16.9405 0.75C16.9405 1.16 16.6005 1.5 16.1905 1.5Z" fill="white"/>
<path d="M16.1905 20H2.31055C1.90055 20 1.56055 19.66 1.56055 19.25C1.56055 18.84 1.90055 18.5 2.31055 18.5H16.1905C16.6005 18.5 16.9405 18.84 16.9405 19.25C16.9405 19.66 16.6005 20 16.1905 20Z" fill="white"/>
<path opacity="0.4" d="M0 5.60156V14.4016C0 16.0616 1.34 17.4016 3 17.4016H15.5C17.16 17.4016 18.5 16.0616 18.5 14.4016V5.60156C18.5 3.94156 17.16 2.60156 15.5 2.60156H3C1.34 2.60156 0 3.94156 0 5.60156Z" fill="white"/>
</svg>
