<svg width="20" height="20" viewBox="0 0 20 20" fill="none" xmlns="http://www.w3.org/2000/svg">
<path opacity="0.4" d="M0 7V13C0 14.66 1.34 16 3 16H17C18.66 16 20 14.66 20 13V7C20 5.34 18.66 4 17 4H3C1.34 4 0 5.34 0 7Z" fill="white"/>
<path d="M3.33008 3.33V3.67C3.33008 3.79 3.33008 3.9 3.34008 4.02C3.39008 4.01 3.44008 4 3.50008 4H5.00008H15.0001H16.5001C16.5601 4 16.6101 4.01 16.6601 4.02C16.6701 3.91 16.6701 3.8 16.6701 3.67V3.33C16.6701 0.67 16.0001 0 13.3301 0H6.67008C4.00008 0 3.33008 0.67 3.33008 3.33Z" fill="white"/>
<path d="M16.5001 16.0005H15.0001H5.00008H3.50008C3.44008 16.0005 3.39008 15.9905 3.34008 15.9805C3.33008 16.0905 3.33008 16.2005 3.33008 16.3305V16.6705C3.33008 19.3305 4.00008 20.0005 6.67008 20.0005H13.3301C16.0001 20.0005 16.6701 19.3305 16.6701 16.6705V16.3305C16.6701 16.2105 16.6701 16.1005 16.6601 15.9805C16.6101 15.9905 16.5601 16.0005 16.5001 16.0005Z" fill="white"/>
</svg>
