<svg width="20" height="20" viewBox="0 0 20 20" fill="none" xmlns="http://www.w3.org/2000/svg">
<path opacity="0.4" d="M14.19 0H5.81C2.17 0 0 2.17 0 5.81V14.18C0 17.83 2.17 20 5.81 20H14.18C17.82 20 19.99 17.83 19.99 14.19V5.81C20 2.17 17.83 0 14.19 0Z" fill="white"/>
<path d="M13.75 7.75H6.25C5.84 7.75 5.5 7.41 5.5 7C5.5 6.59 5.84 6.25 6.25 6.25H13.75C14.16 6.25 14.5 6.59 14.5 7C14.5 7.41 14.16 7.75 13.75 7.75Z" fill="white"/>
<path d="M13.75 13.75H6.25C5.84 13.75 5.5 13.41 5.5 13C5.5 12.59 5.84 12.25 6.25 12.25H13.75C14.16 12.25 14.5 12.59 14.5 13C14.5 13.41 14.16 13.75 13.75 13.75Z" fill="white"/>
</svg>
