<svg width="54" height="39" viewBox="0 0 54 39" fill="none" xmlns="http://www.w3.org/2000/svg">
<path d="M12.8525 3.96873V5.84922H6.79017V3.96873C6.79017 3.63618 6.92227 3.31725 7.15742 3.0821C7.39257 2.84695 7.7115 2.71484 8.04405 2.71484H11.5986C11.9311 2.71484 12.2501 2.84695 12.4852 3.0821C12.7204 3.31725 12.8525 3.63618 12.8525 3.96873Z" fill="#BBBBCD"/>
<path d="M41.6865 0.766662L44.0923 6.47586H25.8088L28.2146 0.766662C28.3105 0.539426 28.4712 0.345493 28.6767 0.209128C28.8821 0.0727623 29.1233 1.90996e-05 29.3699 0H40.5312C40.7778 1.90996e-05 41.019 0.0727623 41.2244 0.209128C41.4299 0.345493 41.5906 0.539426 41.6865 0.766662Z" fill="#BBBBCD"/>
<path d="M53.9162 7.62885V14.3118H8.62504e-08V7.62885C-8.63002e-05 7.29951 0.0647201 6.97337 0.190716 6.66907C0.316712 6.36478 0.50143 6.08829 0.734314 5.85541C0.967198 5.62252 1.24369 5.43781 1.54798 5.31181C1.85228 5.18581 2.17841 5.12101 2.50776 5.12109H51.4084C51.7378 5.12101 52.0639 5.18581 52.3682 5.31181C52.6725 5.43781 52.949 5.62252 53.1819 5.85541C53.4148 6.08829 53.5995 6.36478 53.7255 6.66907C53.8515 6.97337 53.9163 7.29951 53.9162 7.62885Z" fill="#DBD8DD"/>
<path d="M53.9162 14.3125V36.0486C53.9163 36.378 53.8515 36.7041 53.7255 37.0084C53.5995 37.3127 53.4148 37.5892 53.1819 37.8221C52.949 38.055 52.6725 38.2397 52.3682 38.3657C52.0639 38.4917 51.7378 38.5565 51.4084 38.5564H2.50776C2.17841 38.5565 1.85228 38.4917 1.54798 38.3657C1.24369 38.2397 0.967198 38.055 0.734314 37.8221C0.50143 37.5892 0.316712 37.3127 0.190716 37.0084C0.0647201 36.7041 -8.63002e-05 36.378 8.62504e-08 36.0486V14.3125H53.9162Z" fill="#E4572E"/>
<path d="M0 13.793H53.9162V14.8378H0V13.793Z" fill="#EEEFEE"/>
<path d="M39.8625 22.8907C39.8637 25.4431 39.1078 27.9387 37.6906 30.0616C36.2733 32.1844 34.2584 33.8394 31.9005 34.817C29.5426 35.7946 26.9478 36.051 24.4442 35.5537C21.9406 35.0565 19.6407 33.8279 17.8354 32.0234C16.0301 30.219 14.8005 27.9196 14.3021 25.4163C13.8037 22.9129 14.0589 20.318 15.0354 17.9596C16.012 15.6013 17.666 13.5856 19.7882 12.1674C21.9104 10.7492 24.4056 9.99219 26.9581 9.99219C30.3796 9.99184 33.6612 11.3505 36.0812 13.7693C38.5011 16.1882 39.8613 19.4691 39.8625 22.8907Z" fill="#EEEFEE"/>
<path d="M26.9581 33.3411C24.892 33.3405 22.8724 32.7273 21.1548 31.579C19.4371 30.4307 18.0985 28.7989 17.3081 26.8899C16.5178 24.981 16.3112 22.8805 16.7144 20.8541C17.1176 18.8277 18.1126 16.9664 19.5736 15.5054C21.0346 14.0445 22.8959 13.0495 24.9223 12.6462C26.9487 12.243 29.0491 12.4496 30.9581 13.24C32.8671 14.0304 34.4989 15.369 35.6471 17.0866C36.7954 18.8043 37.4086 20.8238 37.4093 22.8899C37.4063 25.6609 36.3043 28.3174 34.3449 30.2768C32.3856 32.2361 29.729 33.3382 26.9581 33.3411Z" fill="#FF7851"/>
<path d="M26.9581 28.3257C25.8839 28.3251 24.8341 28.006 23.9412 27.4088C23.0484 26.8117 22.3526 25.9632 21.9419 24.9707C21.5311 23.9782 21.4238 22.8862 21.6335 21.8327C21.8432 20.7792 22.3605 19.8116 23.1201 19.052C23.8796 18.2925 24.8473 17.7752 25.9007 17.5655C26.9542 17.3558 28.0462 17.4631 29.0387 17.8738C30.0312 18.2846 30.8797 18.9804 31.4769 19.8732C32.074 20.7661 32.3931 21.8159 32.3937 22.89C32.3922 24.3312 31.819 25.7129 30.7999 26.7319C29.7809 27.751 28.3992 28.3241 26.9581 28.3257Z" fill="white"/>
<path d="M50.1545 7.91406H41.6904C41.3443 7.91406 41.0638 8.19461 41.0638 8.54068V10.9708C41.0638 11.3169 41.3443 11.5975 41.6904 11.5975H50.1545C50.5006 11.5975 50.7812 11.3169 50.7812 10.9708V8.54068C50.7812 8.19461 50.5006 7.91406 50.1545 7.91406Z" fill="#BBBBCD"/>
<path d="M7.59823 19.9035C7.59823 20.2135 7.5063 20.5165 7.33406 20.7743C7.16182 21.0321 6.91701 21.233 6.63058 21.3516C6.34416 21.4703 6.02898 21.5013 5.72491 21.4409C5.42085 21.3804 5.14154 21.2311 4.92232 21.0119C4.7031 20.7926 4.55381 20.5133 4.49332 20.2093C4.43284 19.9052 4.46388 19.59 4.58252 19.3036C4.70117 19.0172 4.90208 18.7724 5.15986 18.6001C5.41763 18.4279 5.7207 18.3359 6.03072 18.3359C6.23672 18.3354 6.44078 18.3756 6.6312 18.4542C6.82161 18.5328 6.99462 18.6482 7.14028 18.7939C7.28594 18.9396 7.40138 19.1126 7.47997 19.303C7.55857 19.4934 7.59876 19.6975 7.59823 19.9035Z" fill="#BBBBCD"/>
</svg>
