<svg width="25" height="22" viewBox="0 0 25 22" fill="none" xmlns="http://www.w3.org/2000/svg">
<path d="M8.63871 5.06641C6.7411 5.06641 5.19836 6.60914 5.19836 8.50675C5.19836 10.4044 6.7411 11.9471 8.63871 11.9471C10.5363 11.9471 12.079 10.4044 12.079 8.50675C12.079 6.60914 10.5363 5.06641 8.63871 5.06641ZM8.63871 9.98541C7.82545 9.98541 7.16498 9.32494 7.16498 8.51168C7.16498 7.69842 7.82545 7.03795 8.63871 7.03795C9.45197 7.03795 10.1124 7.69842 10.1124 8.51168C10.1174 9.32001 9.45197 9.98541 8.63871 9.98541Z" fill="#9DA09F"/>
<path d="M20.9365 0.148438H3.72001C1.8224 0.148438 0.279663 1.69117 0.279663 3.58878V18.3409C0.279663 20.2434 1.8224 21.7861 3.72001 21.7861H20.9316C22.8292 21.7861 24.3719 20.2434 24.3719 18.3458V3.58878C24.3768 1.69117 22.8341 0.148438 20.9365 0.148438ZM22.2722 18.9668C22.0307 19.4843 21.5033 19.8195 20.9316 19.8195H9.5262L15.362 12.6825C15.6429 12.4016 16.0126 12.2488 16.4069 12.2488C16.8012 12.2488 17.1709 12.4016 17.4518 12.6825L17.4715 12.7022L22.3363 18.8288L22.2722 18.9668ZM22.4102 16.2658L18.822 11.2778C18.1714 10.637 17.3138 10.2822 16.402 10.2822C15.4852 10.2822 14.6226 10.637 13.977 11.2827L6.68225 19.8195H3.72493C2.91167 19.8195 2.25121 19.159 2.25121 18.3458V3.58878C2.25121 2.77552 2.91167 2.11505 3.72493 2.11505H20.9365C21.7498 2.11505 22.4102 2.77552 22.4102 3.58878V16.2658Z" fill="#9DA09F"/>
</svg>
