<svg width="22" height="22" viewBox="0 0 22 22" fill="none" xmlns="http://www.w3.org/2000/svg">
<path opacity="0.4" d="M10.75 21.4961C10.34 21.4961 10 21.1561 10 20.7461V18.7461C10 18.3361 10.34 17.9961 10.75 17.9961C11.16 17.9961 11.5 18.3361 11.5 18.7461V20.7461C11.5 21.1561 11.16 21.4961 10.75 21.4961Z" fill="white"/>
<path opacity="0.4" d="M10.75 17.4961C10.34 17.4961 10 17.1561 10 16.7461V14.7461C10 14.3361 10.34 13.9961 10.75 13.9961C11.16 13.9961 11.5 14.3361 11.5 14.7461V16.7461C11.5 17.1561 11.16 17.4961 10.75 17.4961Z" fill="white"/>
<path d="M10.75 13.4961C10.34 13.4961 10 13.1561 10 12.7461V9.74609C10 5.47609 13.48 1.99609 17.75 1.99609H20.75C21.16 1.99609 21.5 2.33609 21.5 2.74609C21.5 3.15609 21.16 3.49609 20.75 3.49609H17.75C14.3 3.49609 11.5 6.29609 11.5 9.74609V12.7461C11.5 13.1561 11.16 13.4961 10.75 13.4961Z" fill="white"/>
<path d="M10.75 13.4961C10.34 13.4961 10 13.1561 10 12.7461V9.74609C10 6.29609 7.2 3.49609 3.75 3.49609H0.75C0.34 3.49609 0 3.15609 0 2.74609C0 2.33609 0.34 1.99609 0.75 1.99609H3.75C8.02 1.99609 11.5 5.47609 11.5 9.74609V12.7461C11.5 13.1561 11.16 13.4961 10.75 13.4961Z" fill="white"/>
<path d="M2.74948 5.4975C2.55948 5.4975 2.36945 5.4275 2.21945 5.2775L0.219453 3.2775C-0.0705469 2.9875 -0.0705469 2.5075 0.219453 2.2175L2.21945 0.2175C2.50945 -0.0725 2.98951 -0.0725 3.27951 0.2175C3.56951 0.5075 3.56951 0.987498 3.27951 1.2775L1.80948 2.7475L3.27951 4.2175C3.56951 4.5075 3.56951 4.9875 3.27951 5.2775C3.12951 5.4275 2.93948 5.4975 2.74948 5.4975Z" fill="white"/>
<path d="M18.7495 5.4975C18.5595 5.4975 18.3695 5.4275 18.2195 5.2775C17.9295 4.9875 17.9295 4.5075 18.2195 4.2175L19.6895 2.7475L18.2195 1.2775C17.9295 0.987498 17.9295 0.5075 18.2195 0.2175C18.5095 -0.0725 18.9895 -0.0725 19.2795 0.2175L21.2795 2.2175C21.5695 2.5075 21.5695 2.9875 21.2795 3.2775L19.2795 5.2775C19.1295 5.4275 18.9395 5.4975 18.7495 5.4975Z" fill="white"/>
</svg>
